<?xml version="1.0" encoding="utf-8"?>
<!-- Generator: Adobe Illustrator 15.1.0, SVG Export Plug-In . SVG Version: 6.00 Build 0)  -->
<!DOCTYPE svg PUBLIC "-//W3C//DTD SVG 1.1//EN" "http://www.w3.org/Graphics/SVG/1.1/DTD/svg11.dtd">
<svg version="1.1" id="レイヤー_1" xmlns="http://www.w3.org/2000/svg" xmlns:xlink="http://www.w3.org/1999/xlink" x="0px"
	 y="0px" width="1417.32px" height="992.13px" viewBox="0 0 1417.32 992.13" enable-background="new 0 0 1417.32 992.13"
	 xml:space="preserve">
<linearGradient id="SVGID_1_" gradientUnits="userSpaceOnUse" x1="704.4409" y1="-0.207" x2="712.9468" y2="1000.0815">
	<stop  offset="0" style="stop-color:#B4974C"/>
	<stop  offset="0.1313" style="stop-color:#AF934A"/>
	<stop  offset="0.3015" style="stop-color:#A28544"/>
	<stop  offset="0.4932" style="stop-color:#8E6F3A"/>
	<stop  offset="0.7006" style="stop-color:#71522D"/>
	<stop  offset="0.9184" style="stop-color:#4E3019"/>
	<stop  offset="1" style="stop-color:#40220F"/>
</linearGradient>
<rect fill="url(#SVGID_1_)" stroke="#000000" stroke-miterlimit="10" width="1417.32" height="992.13"/>
<polyline fill="#FFF100" points="1386.543,204.99 1380.609,219.338 1125.682,760.192 1174.792,751.373 1396.618,206.37 "/>
<g>
	<path fill="#FFF100" d="M673.993,90.806c0.602,15.686-9.96,38.756-31.679,69.203c-21.723,30.456-48.523,59.87-80.398,88.253
		c-3.548,18.789-8.531,52.854-14.941,102.19c-10.324,77.308-20.432,132.269-30.327,164.88
		c-9.902,32.618-26.997,66.08-51.296,100.393c-70.194,99.236-151.115,150.604-242.763,154.113
		c-26.286,1.006-49.729-4.155-70.318-15.471c-9.981,30.536-14.54,56.927-13.688,79.185c1.079,28.15,8.874,53.746,23.396,76.791
		c1.495,1.909,2.294,4.169,2.395,6.791c0.1,2.609-1.038,3.966-3.402,4.058c-5.484,0.21-11.772-9.712-18.865-29.755
		c-7.093-20.056-10.979-38.915-11.655-56.585c-0.978-25.526,3.983-53.906,14.884-85.128
		c-50.849-33.397-77.914-93.065-81.205-179.021c-2.115-55.221,7.623-110.576,29.215-166.062
		c21.587-55.48,52.979-105.935,94.167-151.371c52.577-57.647,105.624-87.5,159.145-89.548c29.127-1.115,52.705,9.272,70.74,31.164
		c18.031,21.891,27.788,52.124,29.264,90.68c0.788,20.587-0.524,42.077-3.935,64.459c33.585-33.356,63.329-61.656,89.242-84.908
		c15.086-51.955,34.827-96.893,59.227-134.813c24.396-37.914,46.189-57.242,65.372-57.977
		C667.693,71.9,673.504,78.061,673.993,90.806z M440.192,283.849c-1.314-34.314-10.248-61.624-26.794-81.938
		c-16.553-20.306-37.734-29.974-63.542-28.985c-63.707,2.439-123.585,50.557-179.638,144.334
		c-56.057,93.786-82.205,189.695-78.451,287.732c2.465,64.385,21.385,109.475,56.763,135.281
		c14.701-37.211,36.257-78.129,64.668-122.749c-16.342-18.028-25.007-39.95-25.997-65.77c-0.75-19.606,3.104-36.521,11.575-50.76
		c8.466-14.23,19.094-21.595,31.883-22.084c15.862-0.608,24.188,9.221,24.964,29.481c0.4,10.463-2.216,19.646-7.839,27.544
		c-5.628,7.909-12.468,12.013-20.517,12.323c-11.605,0.445-17.7-7.009-18.288-22.372c-0.188-4.902,0.795-10.172,2.952-15.823
		c0.781-4.28,1.164-6.748,1.138-7.407c-0.075-1.96-0.822-2.914-2.243-2.859c-4.03,0.154-7.945,6.194-11.757,18.122
		s-5.5,23.613-5.062,35.049c0.826,21.57,8.786,40.579,23.883,57.015c44.947-71.102,117.035-154.863,216.274-251.284
		C438.98,329.719,440.993,304.767,440.192,283.849z M528.211,278.515c-26.781,25.25-56.046,53.861-87.783,85.835
		c-12.977,69.883-38.062,131.717-75.252,185.501c-37.193,53.79-73.785,81.373-109.779,82.75
		c-10.895,0.418-23.007-3.049-36.328-10.392c-25.299,39.26-46.493,80.326-63.584,123.199c19.878,11.343,42.133,16.55,66.766,15.607
		c44.518-1.707,86.951-20.758,127.301-57.157c40.344-36.4,74.256-86.054,101.73-148.96c12.869-29.289,22.858-56.424,29.966-81.412
		c7.103-24.978,18.35-71.961,33.734-140.957C518.595,315.379,523.002,297.369,528.211,278.515z M431.138,372.56l-22.6,22.957
		c-86.029,88.39-147.732,161.605-185.113,219.653c10.222,6.812,21.016,9.996,32.382,9.562c33.152-1.27,66.928-26.617,101.321-76.044
		C391.522,499.261,416.188,440.555,431.138,372.56z M667.282,92.044c-0.301-7.844-3.771-11.637-10.398-11.384
		c-15.868,0.608-32.989,16.404-51.369,47.376c-18.38,30.979-32.122,66.935-41.227,107.86c30.246-27.667,55.102-55.128,74.576-82.383
		C658.331,126.26,667.808,105.769,667.282,92.044z"/>
	<path fill="#FFF100" d="M726.21,576.525c0.162,4.262-15.497,32.388-46.974,84.395c-34.393,56.386-64.389,85.06-89.987,86.04
		c-16.596,0.638-31.15-7.563-43.67-24.589c-12.524-17.025-19.244-37.629-20.17-61.818c-1.051-27.453,5.909-56.189,20.889-86.221
		c14.975-30.025,35.674-56.177,62.097-78.469c22.266-19.177,40.625-29.045,55.074-29.599c17.522-0.672,26.836,13.378,27.937,42.13
		c0.864,22.549-3.779,45.31-13.927,68.279c-10.149,22.97-20.673,34.664-31.563,35.081c-10.657,0.409-16.267-6.739-16.83-21.446
		c-0.663-17.315,9.613-33.749,30.84-49.29c16.375-12.079,24.208-27.437,23.496-46.063c-0.563-14.707-6.65-21.836-18.251-21.392
		c-19.66,0.753-42.782,28.638-69.368,83.656c-26.592,55.019-39.184,100.834-37.783,137.429
		c1.177,30.726,12.194,45.682,33.058,44.883c32.712-1.254,75.095-53.849,127.145-157.783c2.881-5.346,5.032-8.055,6.454-8.109
		C725.632,573.933,726.146,574.896,726.21,576.525z"/>
	<path fill="#FFF100" d="M975.929,566.965c0.263,6.877-15.831,39.281-48.272,97.223c-26.2,47.549-47.361,71.63-63.479,72.246
		c-10.914,0.419-20.02-4.877-27.321-15.889c-7.309-11.013-11.283-25.011-11.935-42.008c-0.677-17.646,2.378-36.908,9.17-57.787
		c-21.931,46.662-38.865,78.239-50.8,94.727c-11.942,16.49-23.829,24.969-35.67,25.421c-12.554,0.482-23.373-6.554-32.469-21.093
		c-9.094-14.538-14.074-33.087-14.937-55.637c-2.403-62.747,27.558-119.527,89.884-170.352
		c27.355-22.649,49.675-34.303,66.96-34.965c14.682-0.563,22.399,8.962,23.151,28.569c0.213,5.559-0.456,12.949-1.996,22.167
		l16.294-48.242c7.193,2.018,13.508,2.919,18.956,2.71c6.396-0.245,14.64-1.703,24.736-4.383l-57.375,146.035
		c-19.862,51.164-29.482,84.753-28.87,100.761c0.588,15.364,5.507,22.861,14.755,22.51c9.483-0.366,24.091-15.919,43.813-46.667
		c19.723-30.747,39.534-68.461,59.435-113.153c1.295-3.317,2.537-5.007,3.725-5.051
		C975.104,564.051,975.854,565.001,975.929,566.965z M874.957,489.584c-0.611-16.008-6.248-23.815-16.904-23.408
		c-21.788,0.835-49.257,31.342-82.405,91.522c-33.153,60.177-49.033,108.402-47.644,144.679
		c0.813,21.247,8.087,31.599,21.822,31.073c16.34-0.626,43.205-39.124,80.602-115.505
		C860.985,555.25,875.833,512.462,874.957,489.584z"/>
	<path fill="#FFF100" d="M1179.112,559.184c0.103,2.627-6.556,14.864-19.973,36.717c-16.979,28.231-33.41,42.645-49.306,43.256
		c-18.035,0.689-27.599-13.342-28.701-42.104c-0.35-9.146,0.625-20.801,2.93-34.965c-14.228,18.549-25.687,36.819-34.365,54.823
		c-8.682,18.005-23.468,54.58-44.355,109.7c-12.604-0.826-19.967-1.197-22.101-1.117c-0.948,0.037-8.146,0.964-21.592,2.791
		l53.263-132.621c26.627-66.475,39.64-107.557,39.04-123.243c-0.351-9.146-3.259-13.62-8.713-13.412
		c-13.289,0.509-36.031,36.642-68.218,108.395c-1.96,4.662-3.771,7.025-5.431,7.092c-0.962-0.288-1.472-1.249-1.535-2.888
		c0.173-1.647,0.598-2.979,1.271-3.985l5.935-12.523c33.957-68.531,57.462-103.051,70.509-103.551
		c18.97-0.727,29.107,15.746,30.394,49.4c0.964,25.167-7.473,58.874-25.298,101.116c11.559-20.082,22.67-36.537,33.327-49.387
		c7.885-29.428,18.14-54.204,30.771-74.324c12.626-20.12,24.271-30.385,34.927-30.793c7.341-0.281,11.184,3.99,11.521,12.813
		c0.6,15.685-15.002,38.703-46.805,69.047c-5.035,4.779-12.592,11.771-22.673,20.995l-4.079,5.065
		c-2.739,15.163-3.918,27.643-3.543,37.447c1.052,27.448,9.046,40.888,24,40.315c18.502-0.709,37.857-22.629,58.074-65.765
		C1172.849,560.092,1179.037,557.221,1179.112,559.184z"/>
</g>
<path fill="#FFF100" d="M1363.222,184.989c-29.294,14.772-112.19-34.093-184.426-83.467
	c-72.234-49.375-155.388-35.185-155.388-35.185l-74.609,176.004c0,0,130.909,22.85,166.147,56.737
	c75.636,72.736,180.247,25.173,180.247,25.173"/>
</svg>
